<svg xmlns="http://www.w3.org/2000/svg" viewBox="-1 0 2 2">
  <path d="M 0 0 l 1 1 l -0.1 0 l -0.9 -0.9 l -0.9 0.9 l -0.1 0 z M 0 2 l 1 -1 l -0.1 0 l -0.9 0.9 l -0.9 -0.9 l -0.1 0 z


M 0 0.45 l 0.1 0.1 l -0.1 0.1 l -0.1 -0.1 z

M 0 1.55 l -0.1 -0.1 l 0.1 -0.1 l 0.1 0.1 z

M -0.55 1 l 0.1 0.1 l 0.1 -0.1 l -0.1 -0.1 z

M 0.55 1 l -0.1 -0.1 l -0.1 0.1 l 0.1 0.1 z


M 0.3375 0.9125 l 0.025 -0.025 l -0.25 -0.25 l -0.025 0.025 z

M 0.085 1.34 l 0.025 0.025 l 0.25 -0.25 l -0.025 -0.025 z

M -0.3625 0.8875 l 0.025 0.025 l 0.25 -0.25 l -0.025 -0.025 z

M -0.1125 1.3625 l 0.025 -0.025 l -0.25 -0.25 l -0.025 0.025 z
" fill="#fff"/>
</svg>