<svg xmlns="http://www.w3.org/2000/svg" viewBox="-1.05 -0.05 2.1 2.1">
  <path d="M 0 1.3232 q -0.1343 0 -0.2288 -0.0944 T -0.3232 1 q 0 -0.1343 0.0944 -0.2288 T 0 0.6768 q 0.0859 0 0.1505 0.0348 T 0.2626 0.8071 v -0.1303 h 0.0606 v 0.2565 H 0.0667 v -0.0606 h 0.1697 q -0.0384 -0.0606 -0.098 -0.098 t -0.1384 -0.0374 q -0.1101 0 -0.1863 0.0763 T -0.2626 1 q 0 0.1101 0.0763 0.1863 T 0 1.2626 q 0.0838 0 0.1535 -0.048 T 0.2505 1.0879 h 0.0626 q -0.0293 0.106 -0.1162 0.1707 t -0.197 0.0646 Z


M 0 0 l 1 1 l -0.1 0 l -0.9 -0.9 l -0.9 0.9 l -0.1 0 z M 0 2 l 1 -1 l -0.1 0 l -0.9 0.9 l -0.9 -0.9 l -0.1 0 z" fill="#fff"/>
</svg>